<svg xmlns="http://www.w3.org/2000/svg" version="1.1" xmlns:xlink="http://www.w3.org/1999/xlink" xmlns:svgjs="http://svgjs.dev/svgjs" viewBox="0 0 1422 800"><defs><filter id="uuunion-blur" x="-100%" y="-100%" width="400%" height="400%" color-interpolation-filters="sRGB">
        <feGaussianBlur in="SourceGraphic" stdDeviation="8 0" result="blur"></feGaussianBlur>
        <feDropShadow stdDeviation="20.923076923076923" in="blur" dx="17" dy="17" flood-color="#FC3B01" flood-opacity="0.25" x="0%" y="0%" width="100%" height="100%"></feDropShadow>
      </filter><filter id="uuunion-blur2" x="-100%" y="-100%" width="400%" height="400%" color-interpolation-filters="sRGB">
        <feGaussianBlur in="SourceGraphic" stdDeviation="8 0" result="blur"></feGaussianBlur>
        <feDropShadow stdDeviation="20.923076923076923" in="blur" dx="-17" dy="-17" flood-color="#FC3B01" flood-opacity="0.25" x="0%" y="0%" width="100%" height="100%"></feDropShadow>
      </filter><linearGradient gradientTransform="rotate(0, 0.5, 0.5)" x1="50%" y1="0%" x2="50%" y2="100%" id="uuunion-grad"><stop stop-color="#FBEF74" offset="10%"></stop><stop stop-color="#FC3B01" offset="90%"></stop></linearGradient><linearGradient gradientTransform="rotate(135, 0.5, 0.5)" x1="50%" y1="0%" x2="50%" y2="100%" id="uuunion-grad2"><stop stop-color="#FBEF74" offset="25%"></stop><stop stop-color="#FC3B01" offset="100%"></stop></linearGradient><linearGradient gradientTransform="rotate(333, 0.5, 0.5)" x1="50%" y1="0%" x2="50%" y2="100%" id="uuunion-grad3"><stop stop-color="#FBEF74" offset="0%"></stop><stop stop-color="#FC3B01" offset="75%"></stop></linearGradient></defs><path d="M-137.48 -87.8Q-124.3 -86.69 -111.11 -85.15 -97.93 -83.26 -84.75 -81.17 -71.57 -78.99 -58.39 -76.89 -45.21 -74.98 -32.03 -73.4 -18.84 -72.26 -5.66 -71.62 7.51 -71.53 20.69 -71.99 33.87 -72.97 47.05 -74.42 60.24 -76.22 73.42 -78.28 86.6 -80.45 99.78 -82.58 112.96 -84.55 126.14 -86.22 139.33 -87.49 152.51 -88.26 165.69 -88.49 178.87 -88.17 192.05 -87.32 205.23 -85.98 218.42 -84.25 231.6 -82.25 244.78 -80.1 257.96 -77.94 271.14 -75.92 284.33 -74.16 297.51 -72.78 310.69 -71.88 323.87 -71.5 337.05 -71.68 350.23 -72.41 363.42 -73.63 376.6 -75.27 389.78 -77.21 402.96 -79.34 416.14 -81.51 429.32 -83.58 442.51 -85.42 455.69 -86.9 468.87 -87.93 482.05 -88.44 495.23 -88.4 508.41 -87.81 521.6 -86.71 534.78 -85.17 547.96 -83.3 561.14 -81.2 574.32 -79.03 587.5 -76.92 600.69 -75.01 613.87 -73.43 627.05 -72.27 640.23 -71.62 653.41 -71.52 666.59 -71.97 679.78 -72.95 692.96 -74.39 706.14 -76.19 719.32 -78.24 732.5 -80.41 745.68 -82.55 758.87 -84.52 772.05 -86.2 785.23 -87.47 798.41 -88.25 811.59 -88.49 824.78 -88.18 837.96 -87.33 851.14 -86.01 864.32 -84.29 877.5 -82.29 890.68 -80.13 903.87 -77.98 917.05 -75.95 930.23 -74.18 943.41 -72.8 956.59 -71.89 969.77 -71.51 982.96 -71.68 996.14 -72.39 1009.32 -73.6 1022.5 -75.24 1035.68 -77.18 1048.86 -79.3 1062.05 -81.47 1075.23 -83.55 1088.41 -85.39 1101.59 -86.88 1114.77 -87.92 1127.96 -88.44 1141.14 -88.41 1154.32 -87.83 1167.5 -86.74 1180.68 -85.2 1193.86 -83.33 1207.05 -81.24 1220.23 -79.07 1233.41 -76.95 1246.59 -75.04 1259.77 -73.45 1272.95 -72.29 1286.14 -71.63 1299.32 -71.52 1312.5 -71.96 1325.68 -72.93 1338.86 -74.36 1352.05 -76.16 1365.23 -78.21 1378.41 -80.37 1391.59 -82.51 1404.77 -84.49 1417.95 -86.17 1431.14 -87.45 1444.32 -88.24 1457.5 -88.49 1470.68 -88.19 1483.86 -87.35 1497.05 -86.03 1510.23 -84.32 1523.41 -82.32 1535.27 -71.56 1526.05 -47.88 1528.13 -32.81 1539.64 -17.75 1557.57 -2.68 1577.24 12.37 1593.5 27.44 1602.09 42.5 1600.76 57.57 1589.87 72.64 1572.26 87.7 1552.54 102.77 1535.87 117.83 1526.61 132.9 1527.18 147.96 1537.44 163.03 1554.69 178.1 1574.44 193.16 1591.5 208.23 1601.42 223.29 1601.6 238.36 1591.99 253.42 1575.11 268.49 1555.38 283.56 1537.95 298.62 1527.39 313.69 1526.46 328.75 1535.4 343.82 1551.87 358.88 1571.57 373.95 1589.34 389.01 1600.53 404.08 1602.21 419.15 1593.95 434.21 1577.9 449.28 1558.27 464.34 1540.19 479.41 1528.38 494.47 1525.95 509.54 1533.52 524.61 1549.12 539.67 1568.66 554.74 1587.03 569.8 1599.43 584.87 1602.61 599.93 1595.74 615 1580.61 630.07 1561.19 645.13 1542.56 660.2 1529.59 675.26 1525.67 690.33 1531.83 705.39 1546.46 720.46 1565.73 735.53 1584.6 750.59 1598.13 765.66 1602.78 780.72 1597.34 795.79 1583.23 810.85 1564.14 825.92 1545.06 840.98 1530.99 856.05 1521.47 875.28 1504.36 872.75 1491.38 866.52 1478.4 861.17 1465.42 857.06 1452.44 854.44 1439.46 853.5 1426.48 854.28 1413.5 856.75 1400.52 860.74 1387.54 865.98 1374.56 872.14 1361.58 878.82 1348.6 885.57 1335.62 891.96 1322.63 897.56 1309.65 902.02 1296.67 905.04 1283.69 906.42 1270.71 906.07 1257.73 904.02 1244.75 900.4 1231.77 895.44 1218.79 889.48 1205.81 882.89 1192.83 876.12 1179.85 869.6 1166.87 863.76 1153.89 858.98 1140.91 855.57 1127.93 853.76 1114.95 853.67 1101.97 855.29 1088.99 858.53 1076.01 863.18 1063.03 868.92 1050.05 875.39 1037.07 882.16 1024.09 888.78 1011.11 894.83 998.13 899.92 985.15 903.7 972.17 905.93 959.19 906.46 946.21 905.27 933.23 902.42 920.25 898.11 907.27 892.61 894.29 886.29 881.31 879.56 868.33 872.85 855.35 866.62 842.37 861.25 829.39 857.12 816.41 854.47 803.43 853.5 790.45 854.26 777.47 856.7 764.49 860.66 751.51 865.89 738.53 872.04 725.55 878.71 712.57 885.46 699.59 891.86 686.61 897.48 673.63 901.96 660.65 905 647.67 906.41 634.69 906.09 621.71 904.07 608.73 900.47 595.75 895.53 582.77 889.58 569.79 883.01 556.81 876.23 543.83 869.7 530.85 863.85 517.87 859.05 504.89 855.62 491.9 853.78 478.92 853.65 465.94 855.25 452.96 858.47 439.98 863.09 427 868.82 414.02 875.28 401.04 882.04 388.06 888.67 375.08 894.74 362.1 899.84 349.12 903.65 336.14 905.9 323.16 906.47 310.18 905.3 297.2 902.48 284.22 898.19 271.24 892.71 258.26 886.4 245.28 879.67 232.3 872.96 219.32 866.72 206.34 861.33 193.36 857.17 180.38 854.5 167.4 853.5 154.42 854.23 141.44 856.64 128.46 860.58 115.48 865.79 102.5 871.93 89.52 878.59 76.54 885.35 63.56 891.75 50.58 897.39 37.6 901.89 24.62 904.96 11.64 906.4 -1.33 906.11 -14.31 904.11 -27.29 900.54 -40.27 895.63 -53.25 889.69 -66.23 883.12 -79.21 876.35 -92.19 869.81 -105.17 863.94 -118.15 859.12 -131.13 855.66 -129.59 840.92 -131.35 826.18 -135.94 811.44 -142.17 796.69 -148.4 781.95 -153 767.21 -154.78 752.47 -153.26 737.73 -148.84 722.99 -142.68 708.24 -136.4 693.5 -131.62 678.76 -129.61 664.02 -130.89 649.28 -135.12 634.54 -141.21 619.79 -147.54 605.05 -152.48 590.31 -154.72 575.57 -153.68 560.83 -149.64 546.08 -143.64 531.34 -137.27 516.6 -132.18 501.86 -129.7 487.12 -130.5 472.38 -134.35 457.63 -140.25 442.89 -146.66 428.15 -151.9 413.41 -154.59 398.67 -154.04 383.93 -150.39 369.18 -144.59 354.44 -138.16 339.7 -132.79 324.96 -129.87 310.22 -130.17 295.48 -133.62 280.73 -139.31 265.99 -145.75 251.25 -151.26 236.51 -154.39 221.77 -154.33 207.02 -151.09 192.28 -145.53 177.54 -139.08 162.8 -133.45 148.06 -130.11 133.32 -129.92 118.57 -132.94 103.83 -138.38 89.09 -144.82 74.35 -150.56 59.61 -154.12 44.87 -154.55 30.12 -151.75 15.38 -146.44 0.64 -140.02 -14.09 -134.17 -28.83 -130.41 -43.57 -129.74 -58.32 -132.32 -73.06 -137.48 -87.8" fill="url(#uuunion-grad)"></path><path d="M-137.49 -87.8Q-132.33 -73.06 -129.75 -58.32 -130.42 -43.58 -134.18 -28.83 -140.03 -14.09 -146.45 0.64 -151.76 15.38 -154.56 30.12 -154.13 44.86 -150.57 59.61 -144.83 74.35 -138.39 89.09 -132.95 103.83 -129.93 118.57 -130.12 133.32 -133.46 148.06 -139.09 162.8 -145.54 177.54 -151.11 192.28 -154.34 207.02 -154.4 221.77 -151.27 236.51 -145.76 251.25 -139.32 265.99 -133.63 280.73 -130.18 295.47 -129.88 310.22 -132.8 324.96 -138.17 339.7 -144.6 354.44 -147.66 377.26 -135.78 387.18 -126.64 389.39 -117.5 391.91 -108.36 394.67 -99.22 397.58 -90.08 400.56 -80.94 403.53 -71.81 406.4 -62.67 409.07 -53.53 411.48 -44.39 413.56 -35.25 415.24 -26.11 416.48 -8.84 417.42 -5.79 417.48 5.94 413.76 17.73 409.28 29.55 404.11 41.4 398.34 53.26 392.1 65.11 385.53 76.94 378.79 88.74 372.04 100.49 365.46 112.19 359.18 123.83 353.36 135.39 348.12 146.89 343.53 158.3 339.68 169.64 336.58 180.89 334.22 192.07 332.58 203.16 331.57 214.19 331.09 225.15 331.03 236.06 331.23 246.91 331.56 257.73 331.85 268.51 331.94 279.28 331.69 290.04 330.98 300.81 329.7 311.59 327.77 322.4 325.14 333.24 321.8 344.14 317.75 355.09 313.05 366.11 307.77 377.2 302.01 388.37 295.9 399.62 289.57 410.95 283.18 422.37 276.86 433.87 270.76 445.44 265.02 457.1 259.76 468.82 255.05 480.6 250.98 492.43 247.57 504.31 244.85 516.21 242.77 528.12 241.3 540.04 240.34 551.93 239.81 563.8 239.58 575.63 239.51 587.39 239.46 599.08 239.3 610.68 238.9 622.18 238.13 633.56 236.88 644.81 235.08 655.93 232.68 666.9 229.64 677.73 225.96 688.4 221.68 698.91 216.86 709.28 211.57 719.49 205.91 729.55 200.01 739.48 193.99 749.28 187.99 758.97 182.13 768.55 176.53 778.05 171.31 787.49 166.56 796.88 162.34 806.24 158.71 815.6 155.67 824.99 153.23 834.41 151.33 843.91 149.93 853.5 148.95 863.2 148.27 873.04 147.79 883.04 147.38 893.22 146.93 903.6 146.31 914.19 145.41 925 144.13 936.05 142.39 947.35 140.14 958.9 137.33 970.7 133.96 982.75 130.06 995.05 125.64 1007.58 120.79 1020.35 115.58 1033.32 110.11 1046.5 104.48 1059.84 98.82 1073.34 93.24 1086.96 87.85 1100.68 82.74 1114.47 78.01 1128.29 73.73 1142.11 69.93 1155.91 66.66 1169.63 63.9 1183.26 61.64 1196.75 59.84 1210.07 58.42 1223.2 57.31 1236.1 56.41 1248.74 55.63 1261.1 54.84 1273.16 53.96 1284.89 52.87 1296.29 51.49 1307.35 49.74 1318.04 47.56 1328.38 44.92 1338.36 41.8 1347.99 38.2 1357.29 34.15 1366.25 29.7 1374.91 24.91 1383.29 19.86 1391.41 14.64 1399.3 9.34 1407.01 4.08 1414.56 -1.06 1422 -5.99 1402.51 -23.29 1389.91 -40.59 1388.65 -57.9 1399.16 -75.2 1417.74 -92.5 1437.82 -109.81 1447.87 -135.01 1430.74 -141.24 1418.06 -139.5 1405.38 -137.78 1392.7 -136.2 1380.02 -134.82 1367.34 -133.73 1354.66 -132.99 1341.98 -132.65 1329.3 -132.71 1316.62 -133.18 1303.94 -134.03 1291.26 -135.21 1278.59 -136.66 1265.91 -138.3 1253.23 -140.03 1240.55 -141.76 1227.87 -143.39 1215.19 -144.83 1202.51 -146 1189.83 -146.84 1177.15 -147.29 1164.47 -147.34 1151.79 -146.98 1139.11 -146.23 1126.43 -145.13 1113.75 -143.74 1101.07 -142.15 1088.39 -140.43 1075.71 -138.69 1063.04 -137.03 1050.36 -135.53 1037.68 -134.27 1025 -133.34 1012.32 -132.78 999.64 -132.62 986.96 -132.88 974.28 -133.53 961.6 -134.54 948.92 -135.85 936.24 -137.4 923.56 -139.09 910.88 -140.83 898.2 -142.53 885.52 -144.08 872.84 -145.41 860.16 -146.43 847.48 -147.1 834.81 -147.37 822.13 -147.22 809.45 -146.68 796.77 -145.76 784.09 -144.52 771.41 -143.02 758.73 -141.36 746.05 -139.62 733.37 -137.9 720.69 -136.3 708.01 -134.91 695.33 -133.8 682.65 -133.03 669.97 -132.66 657.29 -132.69 644.61 -133.13 631.93 -133.95 619.26 -135.11 606.58 -136.55 593.9 -138.17 581.22 -139.9 568.54 -141.63 555.86 -143.27 543.18 -144.73 530.5 -145.93 517.82 -146.79 505.14 -147.27 492.46 -147.35 479.78 -147.02 467.1 -146.29 454.42 -145.22 441.74 -143.85 429.06 -142.27 416.38 -140.56 403.71 -138.82 391.03 -137.14 378.35 -135.63 365.67 -134.35 352.99 -133.4 340.31 -132.81 327.63 -132.62 314.95 -132.84 302.27 -133.47 289.59 -134.45 276.91 -135.75 264.23 -137.28 251.55 -138.97 238.87 -140.71 226.19 -142.41 213.51 -143.98 200.83 -145.32 188.15 -146.37 175.48 -147.06 162.8 -147.36 150.12 -147.25 137.44 -146.73 124.76 -145.83 112.08 -144.61 99.4 -143.14 86.72 -141.48 74.04 -139.75 61.36 -138.03 48.68 -136.41 36 -135 23.32 -133.87 10.64 -133.08 -2.03 -132.67 -14.71 -132.67 -27.39 -133.08 -40.06 -133.88 -52.74 -135.02 -65.42 -136.44 -78.1 -138.05 -90.78 -139.77 -103.46 -141.51 -116.14 -143.16 -128.82 -144.63 -141.5 -145.85 -158.53 -139.59 -155.84 -117.59 -146.84 -102.71 -137.49 -87.8" fill="url(#uuunion-grad2)" filter="url(#uuunion-blur)"></path><path d="M1387.69 310.41Q1404.93 306.86 1422.18 304.47 1439.42 304.3 1456.66 305.51 1465.28 306.88 1473.9 308.63 1482.52 310.71 1491.14 313.06 1499.76 315.62 1508.39 318.3 1517.01 321.03 1525.63 323.73 1533.29 341.31 1551.87 358.88 1574.8 376.46 1593.99 394.04 1602.65 411.61 1597.73 429.19 1580.96 446.77 1558.27 464.34 1537.67 481.92 1526.45 499.5 1528.55 517.07 1543.25 534.65 1565.34 552.23 1587.03 569.8 1600.66 587.38 1601.4 604.96 1589 622.53 1567.84 640.11 1545.39 657.69 1529.59 675.26 1526 692.84 1535.91 710.42 1555.81 727.99 1578.67 745.57 1596.42 763.15 1602.78 780.72 1595.52 798.3 1577.19 815.88 1554.27 833.45 1534.85 851.03 1525.81 868.61 1530.32 886.18 1518.41 880.01 1506.51 873.83 1494.6 868 1482.69 862.82 1470.79 858.59 1458.88 855.54 1446.98 853.83 1435.07 853.57 1423.16 854.76 1411.26 857.34 1399.35 861.16 1387.44 866.02 1375.54 871.65 1363.63 877.74 1351.73 883.96 1339.82 889.95 1327.91 895.4 1316.01 900 1304.1 903.5 1292.2 905.7 1280.29 906.49 1268.38 905.82 1256.48 903.73 1244.57 900.34 1232.66 895.82 1220.76 890.43 1208.85 884.47 1196.95 878.26 1185.04 872.15 1173.13 866.46 1161.23 861.53 1149.32 857.61 1137.42 854.92 1125.51 853.61 1113.6 853.76 1101.7 855.35 1089.79 858.29 1077.89 862.43 1065.98 867.54 1054.07 873.33 1042.17 879.49 1030.26 885.68 1018.35 891.55 1006.45 896.79 994.54 901.1 982.64 904.26 970.73 906.07 958.82 906.45 946.92 905.38 935.01 902.9 923.11 899.17 911.2 894.38 899.29 888.8 887.39 882.73 875.48 876.52 863.57 870.49 851.67 864.99 839.76 860.31 827.86 856.72 815.95 854.41 804.04 853.51 792.14 854.06 780.23 856.04 768.33 859.34 756.42 863.78 744.51 869.11 732.61 875.04 720.7 881.24 708.79 887.37 696.89 893.1 684.98 898.11 673.08 902.12 661.17 904.91 649.26 906.33 637.36 906.3 625.45 904.82 613.55 901.98 601.64 897.92 589.73 892.88 577.83 887.13 565.92 880.99 554.02 874.79 542.11 868.88 530.2 863.58 518.3 859.19 506.39 855.94 494.48 854.01 482.58 853.51 470.67 854.48 458.77 856.84 446.86 860.48 434.95 865.2 423.05 870.73 411.14 876.77 399.24 882.98 387.33 889.04 375.42 894.59 363.52 899.34 351.61 903.03 339.7 905.45 327.8 906.47 315.89 906.03 303.99 904.15 292.08 900.95 280.17 896.6 268.27 891.33 256.36 885.43 244.46 879.24 232.55 873.09 220.64 867.32 208.74 862.24 196.83 858.15 184.92 855.26 173.02 853.72 161.11 853.64 149.21 855 137.3 857.74 125.39 861.71 113.49 866.68 101.58 872.39 89.68 878.51 77.77 884.72 65.86 890.66 53.96 896.02 42.05 900.5 30.15 903.84 12.75 901.09 7.2 886.12 6.19 875.93 4.32 865.74 1.83 855.55 -0.98 845.37 -4.8 830.09 -5.29 825 6.25 817.91 18.18 809.45 30.49 799.76 43.17 789.03 56.16 777.55 69.42 765.61 82.87 753.55 96.44 741.69 110.06 730.37 123.65 719.86 137.15 710.41 150.5 702.18 163.67 695.27 176.64 689.72 189.4 685.46 201.95 682.38 214.32 680.27 226.56 678.89 238.7 677.95 250.79 677.15 262.89 676.17 275.06 674.71 287.32 672.5 299.72 669.32 312.28 664.99 325.01 659.44 337.89 652.61 350.92 644.57 364.05 635.43 377.23 625.37 390.41 614.61 403.53 603.42 416.53 592.08 429.36 580.9 441.95 570.15 454.28 560.09 466.33 550.92 478.07 542.81 489.54 535.84 500.77 530.05 511.79 525.4 522.7 521.77 533.55 519.02 544.45 516.93 555.49 515.25 566.76 513.71 578.35 512.05 590.33 510 602.77 507.33 615.7 503.84 629.13 499.38 643.05 493.86 657.41 487.25 672.16 479.59 687.19 470.96 702.4 461.53 717.65 451.47 732.81 441.02 747.74 430.42 762.31 419.93 776.38 409.78 789.86 400.19 802.66 391.35 814.75 383.4 824.49 381.43 834.2 380.06 843.88 379.3 853.51 379.13 863.1 379.51 872.66 380.38 882.17 381.66 891.64 383.27 901.07 385.11 910.46 387.06 919.8 389.02 929.11 390.88 938.37 392.52 947.59 393.85 956.76 394.78 965.9 395.23 974.99 395.14 984.05 394.49 993.06 393.24 1002.04 391.4 1010.98 388.99 1019.88 386.05 1028.74 382.64 1037.58 378.85 1046.38 374.75 1055.14 370.46 1063.88 366.07 1072.59 361.69 1081.28 357.44 1089.94 353.41 1098.58 349.71 1107.2 346.42 1115.8 343.6 1124.38 341.32 1141.51 338.75 1158.62 337.88 1175.7 339.49 1192.8 342.18 1201.36 343.93 1209.93 345.76 1227.12 349.07 1244.36 351.67 1261.73 352.25 1279.19 351.27 1287.97 349.8 1296.8 347.78 1305.67 345.22 1314.57 342.18 1323.53 338.73 1332.53 334.93 1341.59 330.88 1350.69 326.68 1359.86 322.43 1369.07 318.23 1378.35 314.19 1387.69 310.41" fill="url(#uuunion-grad3)" filter="url(#uuunion-blur2)"></path></svg>